<?xml version="1.0" encoding="UTF-8" standalone="no"?>
<!-- Created with Inkscape (http://www.inkscape.org/) -->

<svg
   xmlns:dc="http://purl.org/dc/elements/1.1/"
   xmlns:cc="http://creativecommons.org/ns#"
   xmlns:rdf="http://www.w3.org/1999/02/22-rdf-syntax-ns#"
   xmlns:svg="http://www.w3.org/2000/svg"
   xmlns="http://www.w3.org/2000/svg"
   xmlns:sodipodi="http://sodipodi.sourceforge.net/DTD/sodipodi-0.dtd"
   xmlns:inkscape="http://www.inkscape.org/namespaces/inkscape"
   width="512"
   height="512"
   id="svg2"
   version="1.1"
   inkscape:version="0.48.4 r9939"
   sodipodi:docname="purestrap_logo2.svg">
  <defs
     id="defs4" />
  <sodipodi:namedview
     id="base"
     pagecolor="#ffffff"
     bordercolor="#666666"
     borderopacity="1.0"
     inkscape:pageopacity="0.0"
     inkscape:pageshadow="2"
     inkscape:zoom="0.70710678"
     inkscape:cx="448.46186"
     inkscape:cy="95.299165"
     inkscape:document-units="px"
     inkscape:current-layer="layer1"
     showgrid="false"
     inkscape:window-width="1600"
     inkscape:window-height="844"
     inkscape:window-x="0"
     inkscape:window-y="27"
     inkscape:window-maximized="1"
     showguides="false"
     inkscape:guide-bbox="true">
    <sodipodi:guide
       orientation="0,1"
       position="50,396.1"
       id="guide3800" />
    <sodipodi:guide
       orientation="1,0"
       position="50,50"
       id="guide3802" />
    <sodipodi:guide
       orientation="1,0"
       position="462,400"
       id="guide3804" />
    <sodipodi:guide
       orientation="0,1"
       position="50,115.235"
       id="guide3806" />
    <sodipodi:guide
       orientation="1,0"
       position="224.84766,323.625"
       id="guide3808" />
  </sodipodi:namedview>
  <metadata
     id="metadata7">
    <rdf:RDF>
      <cc:Work
         rdf:about="">
        <dc:format>image/svg+xml</dc:format>
        <dc:type
           rdf:resource="http://purl.org/dc/dcmitype/StillImage" />
        <dc:title></dc:title>
      </cc:Work>
    </rdf:RDF>
  </metadata>
  <g
     inkscape:label="Layer 1"
     inkscape:groupmode="layer"
     id="layer1"
     transform="translate(0,-540.36218)">
    <rect
       style="fill:#34495e;fill-opacity:1;stroke:none"
       id="rect2985"
       width="512"
       height="512"
       x="0"
       y="540.36218" />
    <g
       transform="matrix(0,-1,1,0,0,0)"
       style="font-size:512px;font-style:normal;font-variant:normal;font-weight:bold;font-stretch:normal;line-height:125%;letter-spacing:0px;word-spacing:0px;fill:#ffffff;fill-opacity:1;stroke:none;font-family:Roboto;-inkscape-font-specification:Roboto Bold"
       id="text3774" />
    <g
       style="font-size:135px;font-style:normal;font-variant:normal;font-weight:bold;font-stretch:normal;line-height:125%;letter-spacing:17px;word-spacing:0px;fill:#ffffff;fill-opacity:1;stroke:none;font-family:Roboto;-inkscape-font-specification:Roboto Bold"
       id="text3020">
      <path
         d="m 89.256104,749.38953 0,34.80468 -19.248047,0 0,-95.97656 38.232423,0 c 11.03021,10e-5 19.7094,2.81259 26.0376,8.4375 6.32804,5.62508 9.4921,13.02986 9.49218,22.21436 -8e-5,9.18462 -3.16414,16.56743 -9.49218,22.14843 -6.3282,5.5811 -15.00739,8.37162 -26.0376,8.37159 l -18.984376,0 m 0,-14.83155 18.984376,0 c 5.36127,5e-5 9.42621,-1.45014 12.19482,-4.35058 2.7685,-2.94428 4.15277,-6.67963 4.15283,-11.20606 -6e-5,-4.61419 -1.38433,-8.41545 -4.15283,-11.40381 -2.72466,-3.03214 -6.7896,-4.54825 -12.19482,-4.54834 l -18.984376,0 0,31.50879"
         style=""
         id="path3807" />
      <path
         d="m 251.01196,688.21765 0,63.67676 c -8e-5,10.76662 -3.55965,19.07228 -10.67871,24.91699 -7.11921,5.84473 -16.4356,8.76709 -27.94922,8.76709 -11.46976,0 -20.74221,-2.92236 -27.81738,-8.76709 -7.03126,-5.84471 -10.54688,-14.15037 -10.54687,-24.91699 l 0,-63.67676 19.31396,0 0,63.67676 c -3e-5,6.32815 1.69187,11.07424 5.07568,14.23828 3.38376,3.12013 8.04196,4.68019 13.97461,4.68018 6.02046,10e-6 10.74458,-1.56005 14.17237,-4.68018 3.42767,-3.1201 5.14153,-7.86618 5.1416,-14.23828 l 0,-63.67676 19.31396,0"
         style=""
         id="path3809" />
      <path
         d="m 304.13501,745.82996 0,38.36425 -19.24805,0 0,-95.97656 36.18897,0 c 10.94232,10e-5 19.48968,2.50498 25.64209,7.51465 6.19621,4.9659 9.29435,11.90926 9.29443,20.83008 -8e-5,4.96588 -1.29646,9.22857 -3.88916,12.78808 -2.59285,3.55963 -6.39411,6.43804 -11.40381,8.63526 5.66888,1.66996 9.73381,4.46049 12.19483,8.37158 2.5048,3.91117 3.75724,8.74515 3.75732,14.50195 l 0,7.05323 c -8e-5,2.68067 0.35148,5.49317 1.05469,8.4375 0.74699,2.90039 1.99943,5.05371 3.75732,6.45996 l 0,1.38427 -19.84131,0 c -1.75787,-1.40624 -2.90045,-3.75732 -3.42773,-7.05322 -0.52741,-3.29589 -0.79108,-6.416 -0.79102,-9.36035 l 0,-6.78955 c -6e-5,-4.79001 -1.31842,-8.50339 -3.95507,-11.14014 -2.59283,-2.68062 -6.26226,-4.02096 -11.0083,-4.02099 l -18.3252,0 m 0,-14.83155 16.61133,0 c 5.40522,6e-5 9.42621,-1.14252 12.06299,-3.42773 2.6806,-2.2851 4.02093,-5.66888 4.02099,-10.15137 -6e-5,-4.39446 -1.34039,-7.88811 -4.02099,-10.48096 -2.63678,-2.59269 -6.54791,-3.88907 -11.7334,-3.88916 l -16.94092,0 0,27.94922"
         style=""
         id="path3811" />
      <path
         d="m 450.26831,742.00671 -39.74853,0 0,27.42188 46.47216,0 0,14.76562 -65.72021,0 0,-95.97656 65.58838,0 0,14.83154 -46.34033,0 0,24.12598 39.74853,0 0,14.83154"
         style=""
         id="path3813" />
    </g>
    <g
       style="font-size:128px;font-style:normal;font-variant:normal;font-weight:bold;font-stretch:normal;line-height:125%;letter-spacing:0px;word-spacing:0px;fill:#1abc9c;fill-opacity:1;stroke:none;font-family:Roboto;-inkscape-font-specification:Roboto Bold"
       id="text3792">
      <path
         d="m 117.25,879.44421 c -6e-5,-3.49997 -1.25006,-6.31247 -3.75,-8.4375 -2.45838,-2.12496 -6.79171,-4.12496 -13,-6 -10.833363,-3.12495 -19.020855,-6.83328 -24.5625,-11.125 -5.541677,-4.29161 -8.312508,-10.1666 -8.3125,-17.625 -8e-6,-7.45826 3.166656,-13.54158 9.5,-18.25 6.374976,-4.74991 14.499968,-7.1249 24.375,-7.125 9.99995,10e-5 18.14577,2.66676 24.4375,8 6.29159,5.29175 9.33326,11.83341 9.125,19.625 l -0.125,0.375 -17.6875,0 c -6e-5,-4.20826 -1.41672,-7.60409 -4.25,-10.1875 -2.79172,-2.62492 -6.72921,-3.93742 -11.8125,-3.9375 -4.875037,8e-5 -8.645866,1.08341 -11.3125,3.25 -2.666694,2.16674 -4.000026,4.93757 -4,8.3125 -2.6e-5,3.0834 1.416639,5.62507 4.25,7.625 2.874967,1.95839 7.812462,4.04173 14.8125,6.25 10.04161,2.79172 17.64577,6.47922 22.8125,11.0625 5.16659,4.58337 7.74992,10.6042 7.75,18.0625 -8e-5,7.79169 -3.08341,13.93751 -9.25,18.4375 -6.12506,4.5 -14.22922,6.75 -24.3125,6.75 -9.916699,0 -18.562524,-2.54166 -25.9375,-7.625 -7.375009,-5.12498 -10.958339,-12.29164 -10.75,-21.5 l 0.125,-0.375 17.75,0 c -2.3e-5,5.41669 1.645808,9.39586 4.9375,11.9375 3.333302,2.50002 7.958297,3.75002 13.875,3.75 4.95829,2e-5 8.74995,-1.02082 11.375,-3.0625 2.62494,-2.04165 3.93744,-4.77081 3.9375,-8.1875"
         style=""
         id="path3816" />
      <path
         d="m 212.25,826.25671 -25.75,0 0,76.9375 -18.25,0 0,-76.9375 -25.625,0 0,-14.0625 69.625,0 0,14.0625"
         style=""
         id="path3818" />
      <path
         d="m 240.625,866.81921 0,36.375 -18.25,0 0,-91 34.3125,0 c 10.37495,9e-5 18.47911,2.37509 24.3125,7.125 5.87493,4.70842 8.81242,11.29174 8.8125,19.75 -8e-5,4.7084 -1.22924,8.75006 -3.6875,12.125 -2.4584,3.37505 -6.06257,6.10422 -10.8125,8.1875 5.37493,1.58338 9.2291,4.22921 11.5625,7.9375 2.37492,3.70837 3.56242,8.2917 3.5625,13.75 l 0,6.6875 c -8e-5,2.54168 0.33326,5.20835 1,8 0.70826,2.75001 1.89575,4.79167 3.5625,6.125 l 0,1.3125 -18.8125,0 c -1.66673,-1.33333 -2.75006,-3.56249 -3.25,-6.6875 -0.50006,-3.12499 -0.75006,-6.08332 -0.75,-8.875 l 0,-6.4375 c -6e-5,-4.54164 -1.25006,-8.06247 -3.75,-10.5625 -2.45839,-2.54163 -5.93755,-3.81246 -10.4375,-3.8125 l -17.375,0 m 0,-14.0625 15.75,0 c 5.12495,5e-5 8.93745,-1.08328 11.4375,-3.25 2.54161,-2.16661 3.81244,-5.37494 3.8125,-9.625 -6e-5,-4.1666 -1.27089,-7.47909 -3.8125,-9.9375 -2.50005,-2.45825 -6.20838,-3.68742 -11.125,-3.6875 l -16.0625,0 0,26.5"
         style=""
         id="path3820" />
      <path
         d="m 355.9375,883.56921 -31.9375,0 -6.1875,19.625 -18.4375,0 31.3125,-91 18.6875,0 31.1875,91 -18.4375,0 -6.1875,-19.625 m -27.4375,-14.3125 22.9375,0 -11.25,-35.75 -0.375,0 -11.3125,35.75"
         style=""
         id="path3822" />
      <path
         d="m 407.375,870.19421 0,33 -18.25,0 0,-91 36.25,0 c 10.45828,9e-5 18.68744,2.66676 24.6875,8 5.99992,5.33341 8.99992,12.35424 9,21.0625 -8e-5,8.70839 -3.00008,15.70838 -9,21 -6.00006,5.29171 -14.22922,7.93754 -24.6875,7.9375 l -18,0 m 0,-14.0625 18,0 c 5.08328,5e-5 8.93745,-1.37495 11.5625,-4.125 2.62494,-2.79161 3.93744,-6.33327 3.9375,-10.625 -6e-5,-4.37493 -1.31256,-7.97909 -3.9375,-10.8125 -2.58339,-2.87492 -6.43755,-4.31242 -11.5625,-4.3125 l -18,0 0,29.875"
         style=""
         id="path3824" />
    </g>
  </g>
</svg>
